<svg width="41" height="42" viewBox="0 0 41 42" fill="none" xmlns="http://www.w3.org/2000/svg">
<path d="M0.874678 20.4143C0.873717 23.886 1.78084 27.2759 3.50572 30.2638L0.709717 40.4725L11.157 37.7332C14.0466 39.3062 17.2842 40.1305 20.5742 40.1307H20.5829C31.4439 40.1307 40.285 31.2928 40.2896 20.4299C40.2917 15.166 38.2436 10.2162 34.5225 6.49227C30.8021 2.76864 25.8541 0.71688 20.5821 0.714478C9.71979 0.714478 0.879322 9.5519 0.874838 20.4143" fill="url(#paint0_linear_1234_303)"/>
<path d="M0.171367 20.4065C0.170246 24.0031 1.10988 27.5142 2.89627 30.6091L0 41.1837L10.8219 38.3462C13.8037 39.972 17.1609 40.8291 20.577 40.8304H20.5858C31.8365 40.8304 40.9952 31.6746 41 20.4228C41.0019 14.9698 38.8802 9.84208 35.0262 5.98472C31.1717 2.12784 26.0467 0.00224219 20.5858 0C9.33326 0 0.175852 9.15453 0.171367 20.4065ZM6.61606 30.0761L6.21198 29.4346C4.51336 26.7338 3.61681 23.6126 3.61809 20.4077C3.62177 11.0554 11.233 3.44656 20.5923 3.44656C25.1247 3.44848 29.3842 5.21533 32.588 8.42101C35.7916 11.627 37.5544 15.8888 37.5533 20.4215C37.5491 29.7738 29.9377 37.3837 20.5858 37.3837H20.5791C17.5341 37.3821 14.5476 36.5643 11.9432 35.019L11.3234 34.6514L4.90142 36.3351L6.61606 30.0759V30.0761Z" fill="url(#paint1_linear_1234_303)"/>
<path d="M15.4814 11.8753C15.0993 11.026 14.6971 11.0088 14.3338 10.9939C14.0362 10.9811 13.696 10.9821 13.3562 10.9821C13.016 10.9821 12.4633 11.11 11.9961 11.6201C11.5285 12.1307 10.2107 13.3646 10.2107 15.874C10.2107 18.3837 12.0386 20.8089 12.2934 21.1496C12.5485 21.4896 15.8221 26.8042 21.0067 28.8488C25.3155 30.5479 26.1924 30.2099 27.1275 30.1247C28.0628 30.0399 30.1455 28.8912 30.5704 27.7001C30.9956 26.5092 30.9956 25.4884 30.8681 25.2751C30.7406 25.0625 30.4005 24.9349 29.8904 24.6799C29.3801 24.4248 26.8724 23.1908 26.4049 23.0205C25.9372 22.8505 25.5972 22.7656 25.2571 23.2763C24.9169 23.7862 23.9401 24.9349 23.6424 25.2751C23.3449 25.616 23.0472 25.6585 22.5373 25.4033C22.0269 25.1474 20.3841 24.6094 18.4352 22.8719C16.9188 21.5199 15.8951 19.8502 15.5975 19.3395C15.3 18.8296 15.5657 18.5531 15.8214 18.299C16.0506 18.0704 16.3317 17.7033 16.587 17.4056C16.8413 17.1077 16.9262 16.8952 17.0963 16.555C17.2665 16.2145 17.1813 15.9166 17.054 15.6615C16.9262 15.4064 15.935 12.8838 15.4814 11.8753Z" fill="white"/>
<defs>
<linearGradient id="paint0_linear_1234_303" x1="1979.7" y1="3976.51" x2="1979.7" y2="0.714478" gradientUnits="userSpaceOnUse">
<stop stop-color="#1FAF38"/>
<stop offset="1" stop-color="#60D669"/>
</linearGradient>
<linearGradient id="paint1_linear_1234_303" x1="2050" y1="4118.37" x2="2050" y2="0" gradientUnits="userSpaceOnUse">
<stop stop-color="#F9F9F9"/>
<stop offset="1" stop-color="white"/>
</linearGradient>
</defs>
</svg>
