<svg width="151" height="132" viewBox="0 0 151 132" fill="none" xmlns="http://www.w3.org/2000/svg">
<g filter="url(#filter0_ddddd_1234_439)">
<circle cx="65.5" cy="52.5" r="46.5" fill="#2F3A5A"/>
</g>
<mask id="mask0_1234_439" style="mask-type:luminance" maskUnits="userSpaceOnUse" x="19" y="6" width="93" height="93">
<path d="M65.5 99C91.1812 99 112 78.1812 112 52.5C112 26.8188 91.1812 6 65.5 6C39.8188 6 19 26.8188 19 52.5C19 78.1812 39.8188 99 65.5 99Z" fill="white"/>
</mask>
<g mask="url(#mask0_1234_439)">
<path d="M85.9884 57.9955C88.5845 53.944 88.8929 49.4585 88.7907 44.2973C88.6793 38.6916 88.2532 33.1425 87.5135 27.6123C87.0531 24.1732 84.9209 18.4596 82.6293 16.1132C80.6833 14.1209 77.468 11.9983 75.0028 11.3226C73.5 10.9114 72.2754 10.6144 71.0902 10.4076C68.9179 9.78099 62.8405 9.8244 60.0154 10.4441C58.8913 10.6498 57.721 10.9348 56.3044 11.3226C53.8386 11.9983 50.6245 14.1209 48.6773 16.1132C46.3852 18.459 44.2529 24.1732 43.7937 27.6123C42.1024 40.255 40.5374 54.5826 49.2245 63.7862C52.8076 67.5828 57.3794 69.771 62.0363 70.3685C70.8017 71.492 79.8682 66.8471 85.66 58.4872C85.7742 58.3239 85.8833 58.1605 85.9884 57.9955Z" fill="#3A1D16"/>
<path d="M51.6484 71.5619C53.4945 71.2775 57.6145 69.2515 58.7517 67.6887C60.03 66.1271 61.3101 53.0943 61.3101 53.0943C64.2922 53.6621 69.8322 53.9465 72.6738 52.6682C72.9583 56.6465 72.6738 60.3392 73.5261 64.1748C73.8094 66.1636 74.0949 67.5842 75.6577 68.7209C77.0765 69.8564 79.3504 70.4253 80.9132 71.2781C78.9243 74.4042 85.766 77.9547 83.0666 80.3691C80.6522 82.6424 69.2644 84.6318 67.2756 87.0457L54.0771 80.5838L51.6484 71.5619Z" fill="#E5BC85"/>
<path d="M60.1328 54.7602C60.2419 57.9405 63.4228 64.5686 66.6021 65.7744C70.1109 66.9813 73.4072 56.7839 73.4072 54.3706H72.7423L60.1328 54.7602Z" fill="#C69B67"/>
<path d="M37.3816 88.8025C40.1781 88.3084 45.1126 96.0394 48.4015 95.8744C48.8944 99.3283 48.7305 106.73 48.7305 106.73C45.4405 107.387 40.5065 107.058 37.0526 106.894C36.8538 106.817 37.3816 88.8025 37.3816 88.8025Z" fill="#E5BC85"/>
<path d="M96.8399 88.474C94.0428 87.9799 89.1089 96.0399 85.82 95.8748C85.3271 99.3288 85.491 106.731 85.491 106.731C88.781 107.388 93.715 107.059 97.1689 106.895C97.3677 106.818 96.8399 88.474 96.8399 88.474Z" fill="#E5BC85"/>
<path d="M80.846 73.1631L79.5026 108.409C76.5295 108.379 73.0344 108.358 70.1071 108.36L70.1083 108.373C70.1083 108.373 68.9202 108.369 67.1061 108.365C65.2931 108.369 64.1051 108.373 64.1051 108.373V108.36C61.1635 108.358 57.6404 108.394 54.6525 108.434L53.3125 73.6486C53.3125 73.6486 67.7264 82.2307 80.846 73.1631Z" fill="#E4ECF9"/>
<path d="M83.3641 102.285C83.3641 103.231 82.597 103.998 81.6505 103.998H79.1042C78.1577 103.998 77.3906 103.231 77.3906 102.285V80.538C77.3906 79.5916 78.1577 78.8245 79.1042 78.8245H81.6505C82.597 78.8245 83.3641 79.5916 83.3641 80.538V102.285Z" fill="#474747"/>
<path d="M56.3094 101.517C56.3094 102.463 55.5423 103.23 54.5959 103.23H52.0495C51.103 103.23 50.3359 102.463 50.3359 101.517V79.77C50.3359 78.8235 51.103 78.0564 52.0495 78.0564H54.5959C55.5423 78.0564 56.3094 78.8235 56.3094 79.77V101.517Z" fill="#474747"/>
<path d="M43.0512 75.15C41.0709 76.1404 39.3499 76.7116 38.3635 78.7679C37.6226 80.3306 35.1562 89.1298 35.1562 89.1298C35.367 89.3417 39.2728 94.4121 45.0012 95.5916C44.7025 96.4752 44.5037 97.3731 44.4489 98.2591C44.2021 101.466 45.3536 106.565 48.1496 108.538C48.1496 108.538 50.9998 108.483 54.6514 108.434L53.9472 69.9436C53.0075 70.3806 46.6965 73.3256 43.0512 75.15Z" fill="#595F74"/>
<path d="M99.0568 89.788C99.0568 89.788 96.5904 80.3309 95.8496 78.7681C94.8631 76.7118 93.1421 76.1406 91.1618 75.1502C87.4291 73.2836 80.9062 70.2426 80.2065 69.917L79.5039 108.41C83.1709 108.448 86.0446 108.499 86.0634 108.538C88.8594 106.565 90.5484 101.467 90.3016 98.2593C90.2445 97.3511 90.0395 96.4309 89.727 95.5239C95.1727 94.313 98.8517 89.9931 99.0568 89.788Z" fill="#595F74"/>
<path d="M52.3503 38.7181C50.0467 37.8133 46.8401 38.7998 46.4288 41.5963C45.8531 45.3793 48.7313 49.8197 52.761 49.3262C54.1587 49.1622 55.1463 48.4214 56.3801 47.8456L52.3503 38.7181Z" fill="#C69B67"/>
<path d="M79.3266 38.7181C81.6291 37.8133 84.8368 38.7998 85.2481 41.5963C85.8239 45.3793 82.9456 49.8197 78.9159 49.3262C77.5182 49.1622 76.5306 48.4214 75.2969 47.8456L79.3266 38.7181Z" fill="#C69B67"/>
<path d="M67.5648 60.7303C64.8248 60.5104 60.9796 58.0675 58.5743 56.2345C56.2718 54.481 55.3939 54.0423 54.7365 50.971C54.1876 48.1208 49.6929 31.0149 51.1174 25.752C51.8851 23.0108 52.434 21.0374 53.9688 18.844C55.9422 16.1029 59.0124 14.6772 62.1928 14.1295C67.7841 13.1419 73.9244 14.2386 78.0912 18.186C82.4767 22.1341 81.1613 30.7967 80.6135 36.1682C80.1737 40.7742 77.5423 53.2735 76.008 54.9191C74.9108 56.2345 67.5648 60.7303 67.5648 60.7303Z" fill="#E5BC85"/>
<path d="M82.4912 24.471C81.0227 17.6607 73.0729 9.33909 65.732 13.2751C65.732 13.2786 65.7326 13.2797 65.7326 13.2831C58.4694 9.69665 50.6584 17.7464 49.2087 24.471C48.1811 29.2364 48.6992 33.646 49.8433 38.3223C50.1243 39.4738 51.3033 41.3296 53.4972 43.0688C52.6244 40.8669 51.9121 38.902 51.907 36.463C51.9047 35.3852 51.8053 34.3753 51.987 33.3249C52.2326 31.9072 52.8083 31.9826 53.7445 31.119C55.2941 29.6905 57.042 28.7926 58.5539 27.2921C61.6869 24.1808 65.1882 19.9523 65.8799 15.1132C66.6099 19.9209 70.0422 24.2105 73.1466 27.2921C74.6579 28.7926 76.4063 29.6905 77.956 31.119C78.8922 31.9832 79.4679 31.9078 79.7129 33.3249C79.894 34.3753 79.998 35.3521 79.9963 36.4294C79.9911 38.8689 79.521 40.912 78.6477 43.1139C80.8302 41.5866 81.3648 39.2424 81.6464 38.0909C82.7899 33.4141 83.5182 29.2364 82.4912 24.471Z" fill="#3A1D16"/>
<path opacity="0.2" d="M59.9102 44.5981C59.9102 45.2116 58.7319 45.7079 57.2788 45.7079C55.8262 45.7079 54.6484 45.2116 54.6484 44.5981C54.6484 43.9858 55.8268 43.4883 57.2788 43.4883C58.7324 43.4883 59.9102 43.9858 59.9102 44.5981Z" fill="#E5BC85"/>
<path opacity="0.2" d="M78.0911 44.5981C78.0911 45.2116 76.9121 45.7079 75.4596 45.7079C74.0059 45.7079 72.8281 45.2116 72.8281 44.5981C72.8281 43.9858 74.0065 43.4883 75.4596 43.4883C76.9115 43.4883 78.0911 43.9858 78.0911 44.5981Z" fill="#E5BC85"/>
<path d="M60.3212 38.6365C60.3212 39.8622 59.8237 40.8567 59.2114 40.8567C58.5991 40.8567 58.1016 39.8628 58.1016 38.6365C58.1016 37.4101 58.5991 36.4163 59.2114 36.4163C59.8237 36.4163 60.3212 37.4101 60.3212 38.6365Z" fill="black"/>
<path d="M74.7091 38.6365C74.7091 39.8622 74.2116 40.8567 73.5992 40.8567C72.9858 40.8567 72.4883 39.8628 72.4883 38.6365C72.4883 37.4101 72.9858 36.4163 73.5992 36.4163C74.2116 36.4163 74.7091 37.4101 74.7091 38.6365Z" fill="black"/>
<path d="M67.1117 38.9292C66.9334 39.8448 66.9163 40.7553 67.231 41.5235C67.3932 41.9034 67.6057 42.2518 67.8931 42.5477C68.1798 42.8527 68.5265 43.148 68.8715 43.4884C69.1913 43.8385 69.5838 44.255 69.6649 44.901C69.694 45.2185 69.6066 45.5338 69.4712 45.7823C69.4518 45.8194 69.4204 45.8805 69.3724 45.9559C69.3296 46.0211 69.2896 46.077 69.2428 46.1307C69.1508 46.2364 69.0508 46.3289 68.9474 46.4112C68.5333 46.7402 68.0564 46.9224 67.5698 47.0052C67.0888 47.0743 66.5536 47.0406 66.1641 46.7585C66.6227 46.8573 67.0625 46.7613 67.4612 46.5985C67.8593 46.4397 68.226 46.1981 68.4996 45.9154C68.7572 45.6349 68.9177 45.2648 68.8589 44.9969C68.8166 44.7119 68.5648 44.3886 68.2586 44.0864C67.9616 43.7689 67.6063 43.4667 67.2847 43.0812C66.9683 42.6853 66.7107 42.2204 66.5959 41.7246C66.3417 40.7256 66.6073 39.7072 67.1117 38.9292Z" fill="#C69B67"/>
<path d="M62.8828 51.6829C63.1358 52.8824 65.219 54.3349 66.3556 54.713C68.6278 55.407 69.8907 53.766 70.5847 51.8725L62.8828 51.6829Z" fill="white"/>
<path d="M57.0729 33.0575C56.8633 32.6229 56.8313 32.1139 56.925 31.633C57.0129 31.1475 57.238 30.6837 57.5601 30.2981C58.1884 29.523 59.3211 29.0964 60.2287 29.4585C59.7832 29.6378 59.4096 29.8252 59.0789 30.0542C58.7522 30.2873 58.4672 30.5494 58.2153 30.8487C57.7086 31.4525 57.3545 32.1551 57.0729 33.0575Z" fill="black"/>
<path d="M72.6055 28.6375C73.1115 28.4313 73.721 28.437 74.2648 28.6512C74.8165 28.8556 75.282 29.2618 75.6088 29.7341C75.9372 30.2088 76.1417 30.7514 76.2194 31.302C76.3022 31.8504 76.2713 32.4147 76.0771 32.9299C75.9138 32.4073 75.7601 31.9298 75.5739 31.4763C75.382 31.0256 75.1678 30.6023 74.9051 30.2231C74.6429 29.8427 74.3339 29.5125 73.9592 29.2429C73.5811 28.9773 73.135 28.7877 72.6055 28.6375Z" fill="black"/>
<path d="M44.454 100.14C44.2067 97.8949 44.5288 95.5959 45.2057 93.4351C45.8991 91.2783 46.9569 89.2175 48.4277 87.5056C47.3328 89.4716 46.4155 91.4936 45.75 93.6076C45.0732 95.7176 44.6585 97.8984 44.454 100.14Z" fill="#474747"/>
<path d="M45.0411 91.1517C44.8161 90.1224 44.807 89.0663 44.9755 88.0227C45.1559 86.9888 45.5421 85.9481 46.2561 85.1616C45.943 86.1669 45.6997 87.1231 45.5375 88.1192C45.3593 89.1102 45.2668 90.1212 45.0411 91.1517Z" fill="#474747"/>
<path d="M90.2705 99.8329C90.0425 97.7989 89.5553 95.8449 88.7985 93.9857C88.0508 92.1224 87.0444 90.3786 85.8438 88.7205C87.3854 90.0787 88.5472 91.8597 89.328 93.772C90.0928 95.6889 90.4938 97.788 90.2705 99.8329Z" fill="#474747"/>
<path d="M88.5866 90.555C88.5009 89.5674 88.4369 88.6318 88.281 87.7036C88.1279 86.7743 87.9126 85.8821 87.4922 84.9871C87.8914 85.2909 88.1885 85.7199 88.4044 86.174C88.6248 86.6292 88.7585 87.1187 88.8447 87.6117C88.9927 88.5981 88.9493 89.6239 88.5866 90.555Z" fill="#474747"/>
<path d="M59.1704 65.0193C58.4261 64.3488 57.5882 63.7302 56.612 63.5085C55.3269 63.2172 53.3409 64.1169 52.387 64.9902C51.3423 65.9475 50.7311 67.4634 50.3998 68.8132C50.0274 70.3319 50.1765 71.6097 51.1098 72.8651C52.0071 74.0738 52.973 74.8889 53.2489 76.4345C53.4934 77.8048 52.8913 78.6987 52.1545 79.8211C51.344 81.0543 50.7745 82.2206 50.634 83.7114C50.4044 86.1447 51.0944 88.4746 52.8148 90.2464C52.7868 90.2104 52.7725 90.1698 52.7725 90.1247C53.6053 91.455 54.7768 92.4003 56.0917 93.2206C56.106 92.6716 56.0015 92.0193 55.9895 91.4264C56.1637 92.2484 56.804 93.0521 57.0581 93.8877C58.3702 90.2721 63.2395 86.9449 62.5592 82.8204C62.4044 81.8819 62.2045 80.8503 62.694 80.0353C63.1841 80.9857 63.3503 82.0995 63.159 83.1517C63.9781 81.4969 64.3339 79.5697 63.9021 77.7745C63.6622 76.7761 63.1916 75.8496 62.8757 74.8723C62.3114 73.1245 62.7803 71.307 62.2765 69.6391C61.7305 67.8307 60.5584 66.2725 59.1704 65.0193Z" fill="#3A1D16"/>
</g>
<g clip-path="url(#clip0_1234_439)">
<path fill-rule="evenodd" clip-rule="evenodd" d="M133 18.5C133 14.3891 131.156 10.4467 127.874 7.53984C124.592 4.63303 120.141 3 115.5 3C110.859 3 106.408 4.63303 103.126 7.53984C99.8437 10.4467 98 14.3891 98 18.5V34H115.5C120.141 34 124.592 32.367 127.874 29.4602C131.156 26.5533 133 22.6109 133 18.5ZM123.667 19.5333H121.333V17.4667H123.667V19.5333ZM107.333 19.5333H109.667V17.4667H107.333V19.5333ZM116.667 19.5333H114.333V17.4667H116.667V19.5333Z" fill="#1EA154"/>
</g>
<defs>
<filter id="filter0_ddddd_1234_439" x="0" y="0" width="151" height="200" filterUnits="userSpaceOnUse" color-interpolation-filters="sRGB">
<feFlood flood-opacity="0" result="BackgroundImageFix"/>
<feColorMatrix in="SourceAlpha" type="matrix" values="0 0 0 0 0 0 0 0 0 0 0 0 0 0 0 0 0 0 127 0" result="hardAlpha"/>
<feOffset/>
<feColorMatrix type="matrix" values="0 0 0 0 0 0 0 0 0 0 0 0 0 0 0 0 0 0 0.15 0"/>
<feBlend mode="normal" in2="BackgroundImageFix" result="effect1_dropShadow_1234_439"/>
<feColorMatrix in="SourceAlpha" type="matrix" values="0 0 0 0 0 0 0 0 0 0 0 0 0 0 0 0 0 0 127 0" result="hardAlpha"/>
<feOffset dx="1" dy="4"/>
<feGaussianBlur stdDeviation="5"/>
<feColorMatrix type="matrix" values="0 0 0 0 0 0 0 0 0 0 0 0 0 0 0 0 0 0 0.15 0"/>
<feBlend mode="normal" in2="effect1_dropShadow_1234_439" result="effect2_dropShadow_1234_439"/>
<feColorMatrix in="SourceAlpha" type="matrix" values="0 0 0 0 0 0 0 0 0 0 0 0 0 0 0 0 0 0 127 0" result="hardAlpha"/>
<feOffset dx="3" dy="18"/>
<feGaussianBlur stdDeviation="9"/>
<feColorMatrix type="matrix" values="0 0 0 0 0 0 0 0 0 0 0 0 0 0 0 0 0 0 0.13 0"/>
<feBlend mode="normal" in2="effect2_dropShadow_1234_439" result="effect3_dropShadow_1234_439"/>
<feColorMatrix in="SourceAlpha" type="matrix" values="0 0 0 0 0 0 0 0 0 0 0 0 0 0 0 0 0 0 127 0" result="hardAlpha"/>
<feOffset dx="6" dy="40"/>
<feGaussianBlur stdDeviation="12"/>
<feColorMatrix type="matrix" values="0 0 0 0 0 0 0 0 0 0 0 0 0 0 0 0 0 0 0.08 0"/>
<feBlend mode="normal" in2="effect3_dropShadow_1234_439" result="effect4_dropShadow_1234_439"/>
<feColorMatrix in="SourceAlpha" type="matrix" values="0 0 0 0 0 0 0 0 0 0 0 0 0 0 0 0 0 0 127 0" result="hardAlpha"/>
<feOffset dx="10" dy="72"/>
<feGaussianBlur stdDeviation="14.5"/>
<feColorMatrix type="matrix" values="0 0 0 0 0 0 0 0 0 0 0 0 0 0 0 0 0 0 0.02 0"/>
<feBlend mode="normal" in2="effect4_dropShadow_1234_439" result="effect5_dropShadow_1234_439"/>
<feBlend mode="normal" in="SourceGraphic" in2="effect5_dropShadow_1234_439" result="shape"/>
</filter>
<clipPath id="clip0_1234_439">
<rect width="35" height="31" fill="white" transform="matrix(-1 0 0 1 133 3)"/>
</clipPath>
</defs>
</svg>
